<!DOCTYPE svg PUBLIC "-//W3C//DTD SVG 1.1//EN" "http://www.w3.org/Graphics/SVG/1.1/DTD/svg11.dtd">

<!-- Uploaded to: SVG Repo, www.svgrepo.com, Transformed by: SVG Repo Mixer Tools -->
<svg fill="#00D54B" transform="rotate(10) skewX(-10)" version="1.1" xmlns="http://www.w3.org/2000/svg" xmlns:xlink="http://www.w3.org/1999/xlink" width="800px" height="800px" viewBox="0 0 16.202 30" xml:space="preserve">

<g id="SVGRepo_bgCarrier" stroke-width="0"/>

<g id="SVGRepo_tracerCarrier" stroke-linecap="round" stroke-linejoin="round"/>

<g id="SVGRepo_iconCarrier"> <g id="dollar"> <path d="M16.202,19.432c0-3.313-1.768-5.338-6.15-6.885c-3.129-1.178-4.418-1.951-4.418-3.166c0-1.031,0.773-2.063,3.166-2.063 c1.423,0,2.569,0.243,3.476,0.532c0.483,0.153,1.009,0.101,1.453-0.146c0.443-0.246,0.767-0.663,0.893-1.154l0.02-0.077 c0.156-0.608,0.062-1.253-0.261-1.791c-0.323-0.538-0.848-0.924-1.458-1.072C12.1,3.41,11.135,3.266,10,3.205V1 c0-0.552-0.447-1-1-1H7C6.448,0,6,0.448,6,1v2.511C2.202,4.337,0,6.83,0,10.006c0,3.572,2.688,5.412,6.628,6.738 c2.725,0.921,3.902,1.805,3.902,3.203c0,1.474-1.436,2.283-3.534,2.283c-1.504,0-2.92-0.306-4.148-0.742 c-0.515-0.183-1.082-0.142-1.564,0.115c-0.482,0.256-0.834,0.703-0.97,1.232l-0.009,0.032c-0.326,1.275,0.414,2.581,1.675,2.958 C3.175,26.183,4.574,26.433,6,26.499V29c0,0.553,0.448,1,1,1h2c0.553,0,1-0.447,1-1v-2.843C14,25.326,16.202,22.612,16.202,19.432z "/> </g> <g id="Layer_1"> </g> </g>

</svg>